<svg width="212" height="182" viewBox="0 0 212 182" fill="none" xmlns="http://www.w3.org/2000/svg">
<path fill-rule="evenodd" clip-rule="evenodd" d="M9 11.5096C9 10.1448 10.1467 9 11.5096 9H171.607C172.975 9 174.12 10.1464 174.12 11.5096V18.465L91.5563 63.3484L9 18.4651V11.5096ZM9 28.7092V134.793C9 136.156 10.1484 137.303 11.5096 137.303H118.468C118.424 136.474 118.402 135.639 118.402 134.799C118.402 108.954 139.344 88.0117 165.186 88.0117C168.241 88.0117 171.228 88.3047 174.12 88.8641V28.7089L93.7055 72.424L91.5561 73.5924L89.4068 72.4239L9 28.7092ZM11.5096 146.303H119.827C124.954 166.575 143.315 181.578 165.186 181.578C191.02 181.578 211.957 160.631 211.957 134.799C211.957 115.311 200.053 98.6101 183.12 91.5737V11.5096C183.12 5.16263 177.933 0 171.607 0H11.5096C5.1861 0 0 5.16426 0 11.5096V134.793C0 141.133 5.18441 146.303 11.5096 146.303ZM165.186 97.0117C144.315 97.0117 127.402 113.924 127.402 134.799C127.402 155.662 144.315 172.578 165.186 172.578C186.048 172.578 202.957 155.663 202.957 134.799C202.957 113.923 186.047 97.0117 165.186 97.0117ZM150.218 139.297H180.136V130.297H150.218V139.297Z" fill="#025593"/>
</svg>
