<svg width="215" height="206" viewBox="0 0 215 206" fill="none" xmlns="http://www.w3.org/2000/svg">
<path d="M155.719 66.6923C149.196 31.0206 117.986 4 80.4781 4C38.2464 4 4 38.3235 4 80.6239C4 97.7014 9.62342 113.431 19.0707 126.183C12.8287 145.732 4 161.293 4 161.293C4 161.293 31.2734 161.293 49.4932 150.675C58.9968 154.888 69.4562 157.304 80.4781 157.304C89.9816 157.304 99.0915 155.563 107.47 152.417" stroke="#025593" stroke-width="8" stroke-miterlimit="10" stroke-linecap="round" stroke-linejoin="round"/>
<path d="M161.456 80.3984V89.3866" stroke="#025593" stroke-width="8" stroke-miterlimit="10" stroke-linecap="round"/>
<path d="M210.941 183.758V174.77C200.144 166.849 197.445 156.794 197.445 143.312V125.335C197.445 105.505 181.306 89.3828 161.456 89.3828C141.605 89.3828 125.466 105.505 125.466 125.335V138.818C125.466 152.3 122.767 166.849 111.97 174.77V183.758H210.941Z" stroke="#025593" stroke-width="8" stroke-miterlimit="10" stroke-linejoin="round"/>
<path d="M174.951 192.75C174.951 197.693 168.934 201.738 161.455 201.738C153.976 201.738 147.959 197.693 147.959 192.75" stroke="#025593" stroke-width="8" stroke-miterlimit="10" stroke-linejoin="round"/>
<path d="M80.4795 44.4453V93.8801" stroke="#025593" stroke-width="8" stroke-miterlimit="10" stroke-linejoin="round"/>
<path d="M80.4795 102.871V116.353" stroke="#025593" stroke-width="8" stroke-miterlimit="10" stroke-linejoin="round"/>
</svg>
