<svg width="189" height="188" viewBox="0 0 189 188" fill="none" xmlns="http://www.w3.org/2000/svg">
<path fill-rule="evenodd" clip-rule="evenodd" d="M167.978 79.2704L181.029 58.0335L156.611 52.146L160.611 27.5449L135.982 31.5399L130.088 7.14905L108.828 20.1856L94.093 0L79.3581 20.1856L58.0977 7.14905L52.2037 31.5399L27.5754 27.5449L31.5748 52.146L7.15696 58.0335L20.2079 79.2704L0 93.989L20.2079 108.708L7.15696 129.945L31.5748 135.832L27.5754 160.433L52.2037 156.438L58.0977 180.829L79.3581 167.792L94.093 187.978L108.828 167.792L130.088 180.829L135.982 156.438L160.611 160.433L156.611 135.832L181.029 129.945L167.978 108.708L188.186 93.989L167.978 79.2704ZM167.136 124.267L146.718 129.104L150.086 149.92L129.246 146.556L124.405 166.951L106.512 156.018L94.093 172.839L81.6736 155.807L63.7812 166.741L58.9397 146.556L38.1003 149.92L41.4683 129.104L21.0499 124.267L31.9958 106.395L15.1559 93.989L32.2063 81.5833L21.2604 63.7107L41.6788 58.8746L38.3108 38.0582L59.1502 41.4225L63.9917 21.0266L81.8841 31.9605L94.3035 14.9289L106.723 31.9605L124.615 21.0266L129.457 41.4225L150.296 38.0582L146.718 58.8746L167.136 63.7107L156.19 81.5833L173.241 93.989L156.19 106.395L167.136 124.267ZM94.0923 130.995C97.58 130.995 100.407 128.171 100.407 124.687C100.407 121.203 97.58 118.379 94.0923 118.379C90.6047 118.379 87.7773 121.203 87.7773 124.687C87.7773 128.171 90.6047 130.995 94.0923 130.995ZM89.6719 63.2891H98.5128V98.4035H89.6719V63.2891Z" fill="#025593"/>
</svg>
