<svg width="178" height="178" viewBox="0 0 178 178" fill="none" xmlns="http://www.w3.org/2000/svg">
<path fill-rule="evenodd" clip-rule="evenodd" d="M167.972 89C167.972 132.615 132.615 167.972 89 167.972C45.3851 167.972 10.0282 132.615 10.0282 89C10.0282 45.3851 45.3851 10.0282 89 10.0282C132.615 10.0282 167.972 45.3851 167.972 89ZM178 89C178 138.153 138.153 178 89 178C39.8467 178 0 138.153 0 89C0 39.8467 39.8467 0 89 0C138.153 0 178 39.8467 178 89ZM46.3214 72.979V116.113H56.4248V64.2746H38.8604V72.979H46.3214ZM104.032 93.963C102.374 91.6314 100.12 89.9993 97.2706 89.0667C99.4467 87.9786 101.234 86.4761 102.633 84.559C104.032 82.5902 104.732 80.2586 104.732 77.5644C104.732 73.523 103.307 70.1034 100.457 67.3056C97.6074 64.5077 93.6178 63.1088 88.4884 63.1088C83.359 63.1088 79.3695 64.5077 76.5198 67.3056C73.6701 70.1034 72.2453 73.523 72.2453 77.5644C72.2453 80.2586 72.9448 82.5902 74.3437 84.559C75.7426 86.4761 77.5301 87.9786 79.7063 89.0667C76.8566 89.9993 74.6028 91.6314 72.9448 93.963C71.2868 96.2945 70.4578 98.9628 70.4578 101.968C70.4578 106.372 72.0899 110.025 75.354 112.926C78.67 115.828 83.0481 117.278 88.4884 117.278C93.9287 117.278 98.2809 115.828 101.545 112.926C104.861 110.025 106.519 106.372 106.519 101.968C106.519 98.9628 105.69 96.2945 104.032 93.963ZM88.4884 84.8699C86.3641 84.8699 84.6284 84.1964 83.2813 82.8492C81.9342 81.5021 81.2606 79.7664 81.2606 77.6421C81.2606 75.5178 81.9342 73.7821 83.2813 72.435C84.6284 71.0879 86.3641 70.4143 88.4884 70.4143C90.6127 70.4143 92.3484 71.0879 93.6955 72.435C95.0427 73.7821 95.7162 75.5178 95.7162 77.6421C95.7162 79.7664 95.0427 81.5021 93.6955 82.8492C92.3484 84.1964 90.6127 84.8699 88.4884 84.8699ZM88.4884 109.351C86.2087 109.351 84.3175 108.6 82.815 107.097C81.3124 105.543 80.5612 103.6 80.5612 101.268C80.5612 98.9369 81.3124 97.0199 82.815 95.5173C84.3175 93.963 86.2087 93.1858 88.4884 93.1858C90.7682 93.1858 92.6593 93.963 94.1619 95.5173C95.6644 97.0199 96.4157 98.9369 96.4157 101.268C96.4157 103.6 95.6644 105.543 94.1619 107.097C92.6593 108.6 90.7682 109.351 88.4884 109.351ZM113.93 85.4139V94.1184H126.054V106.242H135.536V94.1184H147.66V85.4139H135.536V73.2899H126.054V85.4139H113.93Z" fill="#025593"/>
</svg>
